<?xml version="1.0" standalone="no"?>
<!DOCTYPE svg PUBLIC "-//W3C//DTD SVG 20010904//EN"
 "http://www.w3.org/TR/2001/REC-SVG-20010904/DTD/svg10.dtd">
<svg version="1.0" xmlns="http://www.w3.org/2000/svg"
 width="512.000000pt" height="512.000000pt" viewBox="0 0 512.000000 512.000000"
 preserveAspectRatio="xMidYMid meet">
<metadata>
Created by potrace 1.14, written by Peter Selinger 2001-2017
</metadata>
<g transform="translate(0.000000,512.000000) scale(0.100000,-0.100000)"
fill="#000000" stroke="none">
<path d="M1331 5099 c-28 -15 -53 -38 -70 -65 -20 -34 -32 -43 -53 -44 -16 0
-28 3 -28 8 0 4 -16 18 -35 31 -121 82 -289 9 -311 -134 -20 -134 102 -250
236 -225 39 7 110 47 110 63 0 4 13 7 29 7 35 0 31 23 66 -395 16 -188 32
-326 41 -352 29 -79 60 -97 437 -243 l347 -135 0 -661 0 -662 -236 -998 c-151
-640 -236 -1019 -236 -1054 -1 -94 50 -177 134 -221 49 -25 174 -26 225 -3 44
21 89 66 112 113 10 20 126 494 257 1054 l239 1018 54 -3 54 -3 242 -1027
c265 -1127 251 -1080 342 -1139 42 -26 55 -29 130 -29 63 0 93 5 121 19 77 40
131 128 132 215 0 29 -94 447 -235 1047 l-235 999 1 388 0 387 24 -66 c12 -36
28 -77 35 -90 7 -13 90 -105 183 -204 94 -99 186 -197 206 -217 l34 -37 -18
-35 c-12 -21 -28 -36 -44 -39 -78 -16 -144 -103 -144 -191 0 -114 84 -199 198
-199 115 0 196 83 196 199 0 29 -2 58 -6 64 -10 16 14 50 30 43 25 -9 107 16
144 44 70 54 93 185 44 251 l-21 28 32 54 c22 37 41 56 61 63 104 33 163 142
135 245 -43 161 -262 197 -357 59 -25 -36 -28 -50 -29 -124 0 -46 -5 -88 -11
-94 -7 -7 -55 37 -149 136 -76 81 -142 154 -146 163 -4 9 -62 185 -128 390
-130 399 -140 419 -215 453 -37 17 -76 19 -518 19 l-477 0 -283 111 c-155 60
-286 114 -290 118 -4 4 -17 106 -27 227 -11 120 -22 240 -25 267 l-6 47 47 0
c37 0 53 -6 80 -30 113 -98 295 -35 322 112 17 91 -33 189 -115 224 -66 29
-166 12 -207 -35 -16 -17 -30 -21 -85 -21 -65 0 -67 1 -85 35 -46 84 -166 119
-255 74z"/>
<path d="M2540 4976 c-98 -28 -203 -105 -256 -188 -64 -101 -82 -246 -44 -359
41 -120 113 -202 227 -256 258 -123 557 36 606 323 28 162 -59 348 -201 431
-98 58 -230 77 -332 49z"/>
</g>
</svg>
